<?xml version="1.0" encoding="utf-8"?>
<!-- Generator: Adobe Illustrator 22.0.0, SVG Export Plug-In . SVG Version: 6.00 Build 0)  -->
<svg version="1.1" id="Layer_1" xmlns="http://www.w3.org/2000/svg" xmlns:xlink="http://www.w3.org/1999/xlink" x="0px" y="0px"
	 viewBox="0 0 313.6 210.9" style="enable-background:new 0 0 313.6 210.9;" xml:space="preserve">
<style type="text/css">
	.st0{fill:#FFFFFF;stroke:#457436;stroke-linejoin:round;stroke-miterlimit:10;}
	.st1{fill:none;stroke:#457436;stroke-linejoin:round;stroke-miterlimit:10;}
</style>
<g>
	<polygon class="st0" points="312.9,90.2 312.9,117.6 134.2,210.7 134.2,167.1 	"/>
	<polygon class="st0" points="134.2,167.1 134.2,210.7 0.7,141.2 0.7,109.7 	"/>
	<polygon class="st0" points="0.7,109.7 134.2,167.1 312.9,90.2 184.5,64.9 	"/>
</g>
<g>
	<polygon class="st1" points="0.7,140.8 0.7,109.7 112.8,82.4 171.5,98 56.9,133.9 56.7,170.8 	"/>
	<polygon class="st1" points="258.7,145.8 134.7,210.8 56.9,170.5 56.9,133.9 171.5,98 201.5,106 213.2,101.9 258.7,113.5 	"/>
	<polygon class="st1" points="258.7,113.5 213.2,101.9 224.4,97.9 136.6,76.6 184.5,64.9 312.9,90.2 312.7,117.8 258.7,145.8 	"/>
</g>
<g>
	<polygon class="st0" points="312.9,62.8 312.9,90.2 134.2,167.1 134.2,123.4 	"/>
	<polygon class="st0" points="134.2,123.4 134.2,167.1 0.7,109.7 0.7,78.2 	"/>
	<polygon class="st0" points="0.7,78.2 134.2,123.4 312.9,62.8 184.4,42.8 	"/>
</g>
<polygon class="st0" points="312.9,35.5 312.9,62.8 134.2,123.4 134.2,79.8 "/>
<polygon class="st0" points="134.2,79.8 134.2,123.4 0.7,78.2 0.7,46.7 "/>
<polygon class="st0" points="0.7,46.7 185.7,20.9 312.9,35.5 134.2,79.8 "/>
<g>
	<polygon class="st0" points="288.9,6.5 288.9,32.7 106.9,72.9 106.9,32.1 	"/>
	<polygon class="st0" points="106.9,31.9 106.9,73.1 17.5,50.9 17.5,17.9 	"/>
	<polygon class="st0" points="288.9,6.5 201.6,0.1 17.5,17.9 106.9,32.1 	"/>
</g>
</svg>
