<?xml version="1.0" encoding="utf-8"?>
<!-- Generator: Adobe Illustrator 22.0.0, SVG Export Plug-In . SVG Version: 6.00 Build 0)  -->
<svg version="1.1" id="Layer_1" xmlns="http://www.w3.org/2000/svg" xmlns:xlink="http://www.w3.org/1999/xlink" x="0px" y="0px"
	 viewBox="0 0 84 58" style="enable-background:new 0 0 84 58;" xml:space="preserve">
<style type="text/css">
	.st0{fill:none;stroke:#FFFFFF;stroke-width:1.4173;stroke-miterlimit:10;}
</style>
<line class="st0" x1="13.2" y1="28.6" x2="24.3" y2="17.5"/>
<line class="st0" x1="13.2" y1="28.6" x2="2.1" y2="17.5"/>
<line class="st0" x1="13.2" y1="21.3" x2="23.4" y2="11.1"/>
<line class="st0" x1="13.2" y1="21.3" x2="2.9" y2="11.1"/>
<line class="st0" x1="13.2" y1="12.8" x2="20.1" y2="5.9"/>
<line class="st0" x1="13.2" y1="12.8" x2="6.3" y2="5.9"/>
<g>
	<path class="st0" d="M13.2,36.4c0,0-25.2-23,0-34.6C38.4,13.3,13.2,36.4,13.2,36.4z"/>
</g>
<line class="st0" x1="42" y1="37.8" x2="53.1" y2="26.7"/>
<line class="st0" x1="42" y1="37.8" x2="30.9" y2="26.7"/>
<line class="st0" x1="42" y1="30.5" x2="52.3" y2="20.2"/>
<line class="st0" x1="42" y1="30.5" x2="31.7" y2="20.2"/>
<line class="st0" x1="42" y1="22" x2="48.9" y2="15.1"/>
<line class="st0" x1="42" y1="22" x2="35.1" y2="15.1"/>
<g>
	<path class="st0" d="M42,45.5c0,0-25.2-23,0-34.6C67.2,22.5,42,45.5,42,45.5z"/>
</g>
<line class="st0" x1="70.8" y1="28.6" x2="81.9" y2="17.5"/>
<line class="st0" x1="70.8" y1="28.6" x2="59.7" y2="17.5"/>
<line class="st0" x1="70.8" y1="21.3" x2="81.1" y2="11.1"/>
<line class="st0" x1="70.8" y1="21.3" x2="60.6" y2="11.1"/>
<line class="st0" x1="70.8" y1="12.8" x2="77.7" y2="5.9"/>
<line class="st0" x1="70.8" y1="12.8" x2="63.9" y2="5.9"/>
<g>
	<path class="st0" d="M70.8,36.4c0,0-25.2-23,0-34.6C96,13.3,70.8,36.4,70.8,36.4z"/>
</g>
<line class="st0" x1="42" y1="10.9" x2="42" y2="56.3"/>
<polyline class="st0" points="13.2,1.7 13.2,48 21.5,48 21.5,56.3 62.5,56.3 62.5,48 70.8,48 70.8,48 70.8,1.7 "/>
</svg>
