<?xml version="1.0" encoding="utf-8"?>
<!-- Generator: Adobe Illustrator 22.0.0, SVG Export Plug-In . SVG Version: 6.00 Build 0)  -->
<svg version="1.1" id="Layer_1" xmlns="http://www.w3.org/2000/svg" xmlns:xlink="http://www.w3.org/1999/xlink" x="0px" y="0px"
	 viewBox="0 0 1366 768" style="enable-background:new 0 0 1366 768;" xml:space="preserve">
<style type="text/css">
	.st0{fill:#FFFFFF;stroke:#000000;stroke-width:2.5423;stroke-linejoin:round;stroke-miterlimit:10;}
</style>
<polygon class="st0" points="355.2,614.4 512.9,489.8 303.1,393.2 145.5,517.8 "/>
<polygon class="st0" points="355.2,711 145.5,614.4 145.5,517.8 355.2,614.4 "/>
<polygon class="st0" points="355.2,711 512.9,586.4 512.9,489.8 355.2,614.4 "/>
<polygon class="st0" points="355.2,517.8 512.9,393.2 303.1,296.6 145.5,421.2 "/>
<polygon class="st0" points="355.2,614.4 145.5,517.8 145.5,421.2 355.2,517.8 "/>
<polygon class="st0" points="355.2,614.4 512.9,489.8 512.9,393.2 355.2,517.8 "/>
<polygon class="st0" points="355.2,421.2 512.9,296.6 303.1,200 145.5,324.6 "/>
<polygon class="st0" points="355.2,517.8 145.5,421.2 145.5,324.6 355.2,421.2 "/>
<polygon class="st0" points="355.2,517.8 512.9,393.2 512.9,296.6 355.2,421.2 "/>
<polygon class="st0" points="670,483.5 827.6,358.9 617.9,262.3 460.3,386.9 "/>
<polygon class="st0" points="670,580.1 460.3,483.5 460.3,386.9 670,483.5 "/>
<polygon class="st0" points="670,580.1 827.6,455.5 827.6,358.9 670,483.5 "/>
<polygon class="st0" points="670,386.9 827.6,262.3 617.9,165.7 460.3,290.3 "/>
<polygon class="st0" points="670,483.5 460.3,386.9 460.3,290.3 670,386.9 "/>
<polygon class="st0" points="670,483.5 827.6,358.9 827.6,262.3 670,386.9 "/>
<polygon class="st0" points="670,290.3 827.6,165.7 617.9,69.1 460.3,193.6 "/>
<polygon class="st0" points="670,386.9 460.3,290.3 460.3,193.6 670,290.3 "/>
<polygon class="st0" points="670,386.9 827.6,262.3 827.6,165.7 670,290.3 "/>
<polygon class="st0" points="805.2,608 962.9,483.5 753.1,386.9 595.5,511.4 "/>
<polygon class="st0" points="805.2,704.6 595.5,608 595.5,511.4 805.2,608 "/>
<polygon class="st0" points="805.2,704.6 962.9,580.1 962.9,483.5 805.2,608 "/>
<polygon class="st0" points="805.2,511.4 962.9,386.9 753.1,290.3 595.5,414.8 "/>
<polygon class="st0" points="805.2,608 595.5,511.4 595.5,414.8 805.2,511.4 "/>
<polygon class="st0" points="805.2,608 962.9,483.5 962.9,386.9 805.2,511.4 "/>
<polygon class="st0" points="805.2,414.8 962.9,290.3 753.1,193.6 595.5,318.2 "/>
<polygon class="st0" points="805.2,511.4 595.5,414.8 595.5,318.2 805.2,414.8 "/>
<polygon class="st0" points="805.2,511.4 962.9,386.9 962.9,290.3 805.2,414.8 "/>
</svg>
