<?xml version="1.0" encoding="utf-8"?>
<!-- Generator: Adobe Illustrator 22.0.0, SVG Export Plug-In . SVG Version: 6.00 Build 0)  -->
<svg version="1.1" id="Layer_1" xmlns="http://www.w3.org/2000/svg" xmlns:xlink="http://www.w3.org/1999/xlink" x="0px" y="0px"
	 viewBox="0 0 1366 768" style="enable-background:new 0 0 1366 768;" xml:space="preserve">
<style type="text/css">
	.st0{fill:#FFFFFF;stroke:#000000;stroke-linejoin:round;stroke-miterlimit:10;}
</style>
<polygon class="st0" points="228,363 290,314 207.5,276 145.5,325 "/>
<polygon class="st0" points="228,401 145.5,363 145.5,325 228,363 "/>
<polygon class="st0" points="228,401 290,352 290,314 228,363 "/>
<polygon class="st0" points="228,325 290,276 207.5,238 145.5,287 "/>
<polygon class="st0" points="228,363 145.5,325 145.5,287 228,325 "/>
<polygon class="st0" points="228,363 290,314 290,276 228,325 "/>
<polygon class="st0" points="228,287 290,238 207.5,200 145.5,249 "/>
<polygon class="st0" points="228,325 145.5,287 145.5,249 228,287 "/>
<polygon class="st0" points="228,325 290,276 290,238 228,287 "/>
</svg>
